<svg width="24" height="25" viewBox="0 0 24 25" fill="none" xmlns="http://www.w3.org/2000/svg">
<path d="M10.556 7.72534H11.5811V8.75007H10.556V7.72534ZM10.556 14.5773H11.5811V15.6021H10.556V14.5773ZM10.556 11.1512H11.5811V12.1759H10.556V11.1512ZM7.15782 7.72534H8.18291V8.75007H7.15782V7.72534ZM3.75928 14.5773H4.78437V15.6021H3.75928V14.5773ZM7.15782 14.5773H8.18291V15.6021H7.15782V14.5773ZM3.75928 11.1512H4.78437V12.1759H3.75928V11.1512ZM7.15782 11.1512H8.18291V12.1759H7.15782V11.1512ZM3.75928 7.72534H4.78437V8.75007H3.75928V7.72534ZM18.0553 12.6232V13.805H18.6189C18.7096 13.805 18.7965 13.769 18.8606 13.7049C18.9247 13.6408 18.9607 13.5538 18.9607 13.4632V10.0068C18.9607 9.91614 18.9247 9.8292 18.8606 9.76509C18.7965 9.70099 18.7096 9.66498 18.6189 9.66498H15.1618C15.0712 9.66507 14.9844 9.70113 14.9204 9.76522C14.8563 9.82932 14.8204 9.9162 14.8204 10.0068V13.4635C14.8204 13.6519 14.9735 13.8053 15.1622 13.8053H15.7313V12.6704C15.7316 12.5019 15.7663 12.3351 15.8334 12.1805C15.9005 12.0258 15.9986 11.8865 16.1215 11.7712C16.2331 11.6638 16.3658 11.5809 16.5113 11.5276C16.6567 11.4744 16.8116 11.4521 16.9662 11.4621C17.1744 11.4734 17.3756 11.5417 17.5476 11.6595C17.6058 11.6992 17.6615 11.7443 17.7131 11.7944C17.9367 12.0283 18.0553 12.3195 18.0553 12.6232Z" fill="#344054"/>
<path d="M15.7313 15.3447V14.4883H15.1618C14.8901 14.4881 14.6296 14.38 14.4375 14.1879C14.2454 13.9958 14.1374 13.7353 14.1371 13.4636V10.0069C14.1373 9.73514 14.2453 9.47457 14.4374 9.28238C14.6295 9.09019 14.8901 8.98209 15.1618 8.9818H18.6189C18.8906 8.98209 19.1512 9.09019 19.3433 9.28238C19.5354 9.47457 19.6434 9.73514 19.6436 10.0069V13.4636C19.6433 13.7353 19.5353 13.9958 19.3432 14.1879C19.1511 14.38 18.8906 14.4881 18.6189 14.4883H18.0553V15.9603C18.1182 15.932 18.1847 15.912 18.2524 15.896C18.2814 15.8887 18.3116 15.884 18.3414 15.8789C18.3727 15.8742 18.404 15.8709 18.4356 15.8687C18.4684 15.8662 18.5 15.8582 18.5338 15.8582C18.7178 15.8582 18.8924 15.9054 19.0513 15.9862C19.0644 15.9927 19.0767 16 19.0894 16.0069C19.1276 16.0283 19.1658 16.0491 19.2014 16.0749C19.2545 16.112 19.3047 16.1527 19.3505 16.1996C19.4581 16.0911 19.5861 16.005 19.7272 15.9462C19.8682 15.8875 20.0195 15.8573 20.1724 15.8574C20.1967 15.8574 20.2204 15.8629 20.2451 15.8647C20.2927 15.8673 20.3411 15.8698 20.3876 15.8785C20.4174 15.884 20.4454 15.8942 20.4745 15.9018C20.5156 15.9127 20.5564 15.9236 20.5956 15.9385C20.624 15.9494 20.6502 15.964 20.6771 15.9771C20.7153 15.9956 20.7527 16.0145 20.7884 16.0371C20.8138 16.0531 20.8371 16.0713 20.8611 16.0891C20.8822 16.1047 20.9047 16.1174 20.9247 16.1345V2.93562C20.9244 2.66393 20.8164 2.40345 20.6243 2.21134C20.4322 2.01923 20.1717 1.91118 19.9 1.91089H2.73454C2.46285 1.91118 2.20237 2.01923 2.01026 2.21134C1.81815 2.40345 1.7101 2.66393 1.70981 2.93562V16.3705C1.71 16.6423 1.81801 16.9028 2.01013 17.095C2.20226 17.2872 2.46279 17.3953 2.73454 17.3956H14.0916V17.0873C14.0921 16.6427 14.2619 16.215 14.5666 15.8913C14.8713 15.5675 15.2875 15.3721 15.7313 15.3447ZM14.4804 3.35089H19.3022C19.39 3.35494 19.4729 3.39269 19.5336 3.45628C19.5943 3.51987 19.6282 3.60442 19.6282 3.69234C19.6282 3.78027 19.5943 3.86482 19.5336 3.92841C19.4729 3.992 19.39 4.02974 19.3022 4.0338H14.48C14.3922 4.02974 14.3093 3.992 14.2485 3.92841C14.1878 3.86482 14.1539 3.78027 14.1539 3.69234C14.1539 3.60442 14.1878 3.51987 14.2485 3.45628C14.3093 3.39269 14.3925 3.35494 14.4804 3.35089ZM14.4804 5.19634H19.3022C19.3928 5.19634 19.4798 5.23236 19.5439 5.29646C19.608 5.36056 19.644 5.44751 19.644 5.53816C19.644 5.62882 19.608 5.71576 19.5439 5.77986C19.4798 5.84397 19.3928 5.87998 19.3022 5.87998H14.48C14.3893 5.87998 14.3024 5.84397 14.2383 5.77986C14.1742 5.71576 14.1382 5.62882 14.1382 5.53816C14.1382 5.44751 14.1742 5.36056 14.2383 5.29646C14.3024 5.23236 14.3897 5.19634 14.4804 5.19634ZM14.4804 7.04216H19.3022C19.3909 7.04505 19.4749 7.08232 19.5366 7.14607C19.5983 7.20982 19.6328 7.29507 19.6328 7.3838C19.6328 7.47252 19.5983 7.55777 19.5366 7.62153C19.4749 7.68528 19.3909 7.72254 19.3022 7.72543H14.48C14.3913 7.72254 14.3072 7.68528 14.2455 7.62153C14.1838 7.55777 14.1493 7.47252 14.1493 7.3838C14.1493 7.29507 14.1838 7.20982 14.2455 7.14607C14.3072 7.08232 14.3917 7.04505 14.4804 7.04216ZM5.46726 15.6022C5.46707 15.7832 5.39506 15.9568 5.26703 16.0848C5.139 16.2129 4.96541 16.2849 4.78435 16.2851H3.75926C3.5782 16.2849 3.40461 16.2129 3.27659 16.0848C3.14856 15.9568 3.07655 15.7832 3.07635 15.6022V14.5774C3.07635 14.3962 3.14828 14.2225 3.27633 14.0943C3.40438 13.9661 3.57808 13.894 3.75926 13.8938H4.78435C4.96554 13.894 5.13924 13.9661 5.26729 14.0943C5.39534 14.2225 5.46726 14.3962 5.46726 14.5774V15.6022ZM5.46726 12.176C5.46717 12.3571 5.3952 12.5308 5.26716 12.6589C5.13912 12.787 4.96548 12.8591 4.78435 12.8593H3.75926C3.57814 12.8591 3.4045 12.787 3.27646 12.6589C3.14842 12.5308 3.07645 12.3571 3.07635 12.176V11.1513C3.07645 10.9701 3.14842 10.7964 3.27646 10.6683C3.4045 10.5402 3.57814 10.4682 3.75926 10.468H4.78435C4.96548 10.4682 5.13912 10.5402 5.26716 10.6683C5.3952 10.7964 5.46717 10.9701 5.46726 11.1513V12.176ZM5.46726 8.75052C5.46707 8.93158 5.39506 9.10517 5.26703 9.2332C5.139 9.36123 4.96541 9.43324 4.78435 9.43343H3.75926C3.57814 9.43324 3.4045 9.36118 3.27646 9.23307C3.14842 9.10497 3.07645 8.93128 3.07635 8.75016V7.72543C3.07645 7.54431 3.14842 7.37063 3.27646 7.24252C3.4045 7.11442 3.57814 7.04235 3.75926 7.04216H4.78435C4.96548 7.04235 5.13912 7.11442 5.26716 7.24252C5.3952 7.37063 5.46717 7.54431 5.46726 7.72543V8.75052ZM8.86581 15.6022C8.86562 15.7833 8.79355 15.9569 8.66545 16.085C8.53734 16.213 8.36366 16.285 8.18254 16.2851H7.15781C6.97669 16.285 6.803 16.213 6.6749 16.085C6.54679 15.9569 6.47473 15.7833 6.47454 15.6022V14.5774C6.47454 14.3962 6.54651 14.2224 6.67464 14.0942C6.80277 13.966 6.97656 13.8939 7.15781 13.8938H8.18254C8.36378 13.8939 8.53758 13.966 8.6657 14.0942C8.79383 14.2224 8.86581 14.3962 8.86581 14.5774V15.6022ZM8.86581 12.176C8.86571 12.3572 8.79369 12.5309 8.66558 12.659C8.53746 12.7871 8.36372 12.8592 8.18254 12.8593H7.15781C6.97662 12.8592 6.80289 12.7871 6.67477 12.659C6.54665 12.5309 6.47463 12.3572 6.47454 12.176V11.1513C6.47463 10.9701 6.54665 10.7963 6.67477 10.6682C6.80289 10.5401 6.97662 10.4681 7.15781 10.468H8.18254C8.36372 10.4681 8.53746 10.5401 8.66558 10.6682C8.79369 10.7963 8.86571 10.9701 8.86581 11.1513V12.176ZM8.86581 8.75052C8.86562 8.93165 8.79355 9.10529 8.66545 9.23333C8.53734 9.36137 8.36366 9.43334 8.18254 9.43343H7.15781C6.97662 9.43334 6.80289 9.36132 6.67477 9.2332C6.54665 9.10508 6.47463 8.93135 6.47454 8.75016V7.72543C6.47463 7.54425 6.54665 7.37051 6.67477 7.24239C6.80289 7.11428 6.97662 7.04226 7.15781 7.04216H8.18254C8.36372 7.04226 8.53746 7.11428 8.66558 7.24239C8.79369 7.37051 8.86571 7.54425 8.86581 7.72543V8.75052ZM12.264 15.6022C12.2638 15.7833 12.1917 15.957 12.0635 16.0851C11.9353 16.2131 11.7615 16.2851 11.5804 16.2851H10.5564C10.3752 16.2851 10.2014 16.2131 10.0732 16.0851C9.94502 15.957 9.87291 15.7833 9.87272 15.6022V14.5774C9.87272 14.3961 9.94474 14.2222 10.0729 14.094C10.2012 13.9658 10.375 13.8938 10.5564 13.8938H11.5811C11.7623 13.8939 11.9361 13.966 12.0642 14.0942C12.1924 14.2224 12.2644 14.3962 12.2644 14.5774L12.264 15.6022ZM12.264 12.176C12.2639 12.3572 12.1918 12.531 12.0636 12.6591C11.9354 12.7873 11.7616 12.8593 11.5804 12.8593H10.5564C10.3751 12.8593 10.2013 12.7873 10.0731 12.6591C9.94488 12.531 9.87281 12.3572 9.87272 12.176V11.1513C9.87281 10.97 9.94488 10.7962 10.0731 10.6681C10.2013 10.54 10.3751 10.468 10.5564 10.468H11.5811C11.7623 10.4681 11.936 10.5401 12.0641 10.6682C12.1922 10.7963 12.2643 10.9701 12.2644 11.1513L12.264 12.176ZM12.264 8.75052C12.2638 8.93171 12.1917 9.10541 12.0635 9.23346C11.9353 9.36151 11.7615 9.43343 11.5804 9.43343H10.5564C10.3751 9.43343 10.2013 9.36146 10.0731 9.23333C9.94488 9.1052 9.87281 8.93141 9.87272 8.75016V7.72543C9.87281 7.54419 9.94488 7.37039 10.0731 7.24227C10.2013 7.11414 10.3751 7.04216 10.5564 7.04216H11.5811C11.7623 7.04226 11.936 7.11428 12.0641 7.24239C12.1922 7.37051 12.2643 7.54425 12.2644 7.72543L12.264 8.75052ZM12.264 4.98252C12.2638 5.25434 12.1557 5.51496 11.9635 5.70716C11.7713 5.89936 11.5107 6.00742 11.2389 6.00762H4.10072C3.82903 6.00723 3.56859 5.89908 3.37655 5.7069C3.18451 5.51473 3.07655 5.25421 3.07635 4.98252V4.04616C3.07664 3.77448 3.1847 3.514 3.37681 3.32189C3.56892 3.12978 3.82939 3.02172 4.10108 3.02143H11.2393C11.5109 3.02172 11.7714 3.12978 11.9635 3.32189C12.1556 3.514 12.2637 3.77448 12.264 4.04616V4.98252Z" fill="#344054"/>
<path d="M21.4982 16.6611C21.4964 16.6622 21.4956 16.664 21.4942 16.6651L21.4916 16.6687C21.3935 16.7545 21.3346 16.8869 21.3346 17.0233L21.3338 17.028V18.0916C21.3309 18.1803 21.2937 18.2644 21.2299 18.3261C21.1662 18.3878 21.0809 18.4223 20.9922 18.4223C20.9035 18.4223 20.8182 18.3878 20.7545 18.3261C20.6907 18.2644 20.6534 18.1803 20.6506 18.0916V17.0225C20.6506 16.8934 20.6011 16.7731 20.5116 16.6833C20.4684 16.6392 20.4168 16.6041 20.36 16.58C20.3589 16.5793 20.3582 16.5782 20.3571 16.5778C20.2841 16.548 20.2049 16.5367 20.1264 16.5448C20.048 16.5528 19.9727 16.5801 19.9073 16.6241C19.8419 16.6681 19.7883 16.7275 19.7513 16.7971C19.7142 16.8668 19.6949 16.9444 19.6949 17.0233C19.6949 17.0276 19.6927 17.0313 19.6924 17.0356V18.0905C19.6895 18.1792 19.6522 18.2633 19.5885 18.325C19.5247 18.3867 19.4395 18.4212 19.3507 18.4212C19.262 18.4212 19.1768 18.3867 19.113 18.325C19.0493 18.2633 19.012 18.1792 19.0091 18.0905V17.0214L19.0098 17.0182C19.0086 16.8923 18.9578 16.7719 18.8684 16.6833C18.825 16.6383 18.7731 16.6026 18.7156 16.5782C18.6581 16.5538 18.5963 16.5413 18.5338 16.5414C18.2698 16.5414 18.0553 16.7574 18.0553 17.0233C18.0553 17.0269 18.0535 17.0294 18.0535 17.0331V18.0905C18.0535 18.1812 18.0174 18.2681 17.9533 18.3322C17.8892 18.3963 17.8023 18.4323 17.7116 18.4323C17.621 18.4323 17.534 18.3963 17.4699 18.3322C17.4058 18.2681 17.3698 18.1812 17.3698 18.0905L17.3713 12.6225C17.3713 12.4953 17.3196 12.3716 17.2266 12.2745C17.2051 12.2548 17.182 12.2371 17.1575 12.2214C17.0893 12.1757 17.01 12.1491 16.928 12.1447H16.9207C16.8638 12.1423 16.8069 12.1508 16.7531 12.1698L16.74 12.1745C16.6895 12.1945 16.6422 12.2247 16.5993 12.2629C16.5964 12.2658 16.5927 12.2676 16.5898 12.2702C16.535 12.3216 16.4912 12.3837 16.4613 12.4527C16.4313 12.5217 16.4158 12.5961 16.4156 12.6713L16.4146 18.9491C16.4117 19.0378 16.3744 19.1218 16.3106 19.1835C16.2469 19.2452 16.1616 19.2797 16.0729 19.2797C15.9842 19.2797 15.8989 19.2452 15.8352 19.1835C15.7714 19.1218 15.7342 19.0378 15.7313 18.9491V16.0327C15.4697 16.0593 15.2273 16.1818 15.0508 16.3767C14.8744 16.5717 14.7765 16.8251 14.776 17.088V17.7371C14.776 17.7389 14.7749 17.7403 14.7749 17.7422V19.3316C14.7749 20.3342 15.1655 21.2785 15.8746 21.9905C16.2234 22.3398 16.6378 22.6166 17.094 22.8052C17.5502 22.9937 18.0391 23.0902 18.5327 23.0891C20.6044 23.0891 22.2902 21.4036 22.2902 19.3316V17.0225C22.2902 16.8953 22.2396 16.7738 22.1484 16.6803C21.9746 16.5065 21.6724 16.4993 21.4982 16.6611ZM11.2389 3.70435H4.10073C4.01014 3.70444 3.92329 3.7405 3.85926 3.80459C3.79524 3.86868 3.75928 3.95557 3.75928 4.04616V4.98253C3.75928 5.17089 3.91273 5.32435 4.1011 5.32435H11.2393C11.3299 5.32425 11.4167 5.28819 11.4807 5.2241C11.5448 5.16001 11.5807 5.07312 11.5807 4.98253V4.04616C11.5807 3.95551 11.5447 3.86857 11.4806 3.80446C11.4165 3.74036 11.3296 3.70435 11.2389 3.70435Z" fill="#344054"/>
</svg>
