<svg width="100" height="110" viewBox="0 0 100 110" fill="none" xmlns="http://www.w3.org/2000/svg">
<path d="M3.125 51.4623H0.625V62.584C0.647176 64.6295 1.33907 65.5952 3.75 66.9089L45 87.8736C49.7921 90.2567 50.5106 90.2567 55 87.8736L96.25 66.9089C98.646 65.4852 99.3884 64.4375 99.3884 62.5624V51.441L96.875 51.4623V62.5624C96.8631 63.4958 95.9167 63.93 95 64.4374L51.25 86.6808V41.5764C51.2542 40.6868 51.6992 40.079 52.5 39.5253L56.875 37.2989L55 35.4023L51.25 37.2514C50 37.8693 50 37.8693 48.75 37.2514L45 35.4023L43.125 37.2989L47.5 39.5253C48.417 40.1512 48.7295 40.7465 48.75 41.5764V86.6808L5.07706 64.4159C4.18689 64.0135 3.29962 63.6455 3.125 62.584V51.4623Z" fill="#F5972C"/>
<path d="M1.875 52.8789C2.91053 52.8789 3.75 52.0406 3.75 51.0066C3.75 49.9725 2.91053 49.1343 1.875 49.1343C0.839466 49.1343 0 49.9725 0 51.0066C0 52.0406 0.839466 52.8789 1.875 52.8789Z" fill="#F5972C"/>
<path d="M98.125 52.8789C99.1605 52.8789 100 52.0406 100 51.0066C100 49.9725 99.1605 49.1343 98.125 49.1343C97.0895 49.1343 96.25 49.9725 96.25 51.0066C96.25 52.0406 97.0895 52.8789 98.125 52.8789Z" fill="#F5972C"/>
<path d="M58.125 36.0347C58.125 37.0821 57.2855 37.9313 56.25 37.9313C55.2145 37.9313 54.375 37.0821 54.375 36.0347C54.375 34.9872 55.2145 34.1382 56.25 34.1382C57.2855 34.1382 58.125 34.9872 58.125 36.0347Z" fill="#F5972C"/>
<path d="M45.625 36.0347C45.625 37.0821 44.7855 37.9313 43.75 37.9313C42.7145 37.9313 41.875 37.0821 41.875 36.0347C41.875 34.9872 42.7145 34.1382 43.75 34.1382C44.7855 34.1382 45.625 34.9872 45.625 36.0347Z" fill="#F5972C"/>
<path d="M98.125 45.1832C99.1605 45.1832 100 44.3341 100 43.2867C100 42.2393 99.1605 41.3901 98.125 41.3901C97.0895 41.3901 96.25 42.2393 96.25 43.2867C96.25 44.3341 97.0895 45.1832 98.125 45.1832Z" fill="#F5972C"/>
<path d="M77.9281 52.7647C77.9281 53.8121 77.0888 54.6613 76.0531 54.6613C75.0176 54.6613 74.1781 53.8121 74.1781 52.7647C74.1781 51.7173 75.0176 50.8682 76.0531 50.8682C77.0888 50.8682 77.9281 51.7173 77.9281 52.7647Z" fill="#F5972C"/>
<path d="M95 61.3218C95 62.3692 94.1605 63.2184 93.125 63.2184C92.0895 63.2184 91.25 62.3692 91.25 61.3218C91.25 60.2744 92.0895 59.4253 93.125 59.4253C94.1605 59.4253 95 60.2744 95 61.3218Z" fill="#F5972C"/>
<path d="M76.875 53.7356L75.625 51.8391L60.625 59.2985C57.6632 60.7895 56.2834 61.7501 56.25 63.6359L56.2512 72.9514C56.2512 72.9514 56.87 76.6644 60.5835 74.8078L85.625 61.9541C87.0818 61.2308 87.5021 59.9514 87.5 57.4396V51.207C87.5303 50.5579 88.0131 49.6995 88.75 49.3105L98.75 44.253L97.5 42.3564L88.75 46.7817C85.7661 48.1542 85.0308 49.7196 85 51.2433V58.6788C85.0214 59.4206 84.828 59.6486 84.375 59.9181L59.9648 72.3325C59.278 72.6636 58.7274 72.4346 58.7274 71.0948L58.75 64.2554C58.7643 63.732 59.0191 62.8391 60 62.3965L76.875 53.7356Z" fill="#F5972C"/>
<path d="M98.125 35.2081C99.1605 35.2081 100 34.359 100 33.3116C100 32.2642 99.1605 31.415 98.125 31.415C97.0895 31.415 96.25 32.2642 96.25 33.3116C96.25 34.359 97.0895 35.2081 98.125 35.2081Z" fill="#F5972C"/>
<path d="M71.268 49.0425C71.268 50.09 70.4285 50.9391 69.393 50.9391C68.3575 50.9391 67.518 50.09 67.518 49.0425C67.518 47.9951 68.3575 47.146 69.393 47.146C70.4285 47.146 71.268 47.9951 71.268 49.0425Z" fill="#F5972C"/>
<path d="M54.375 43.8829C55.4105 43.8829 56.25 43.0338 56.25 41.9864C56.25 40.939 55.4105 40.0898 54.375 40.0898C53.3395 40.0898 52.5 40.939 52.5 41.9864C52.5 43.0338 53.3395 43.8829 54.375 43.8829Z" fill="#F5972C"/>
<path d="M98.125 25.3805C99.1605 25.3805 100 24.5314 100 23.484C100 22.4365 99.1605 21.5874 98.125 21.5874C97.0895 21.5874 96.25 22.4365 96.25 23.484C96.25 24.5314 97.0895 25.3805 98.125 25.3805Z" fill="#F5972C"/>
<path d="M60.6248 41.092L97.5001 22.2061L99.3748 24.0231L59.9998 44.253C59.0293 44.8634 58.7479 45.3109 58.7498 46.1495C58.7498 46.1495 58.7308 50.1597 58.7498 51.207C58.7686 52.2544 59.1173 52.8581 59.9998 52.4826L68.7498 48.0461L70.6246 49.9426L60.6254 55.0001C58.6668 56.0072 56.2498 55.0001 56.2498 52.4826L56.2544 45.8553C56.2544 43.5605 57.2944 42.6883 60.6248 41.092Z" fill="#F5972C"/>
<path d="M1.875 45.2692C2.91053 45.2692 3.75 44.4201 3.75 43.3726C3.75 42.3252 2.91053 41.4761 1.875 41.4761C0.839466 41.4761 0 42.3252 0 43.3726C0 44.4201 0.839466 45.2692 1.875 45.2692Z" fill="#F5972C"/>
<path d="M26.25 53.1036C26.25 54.151 25.4105 55.0001 24.375 55.0001C23.3395 55.0001 22.5 54.151 22.5 53.1036C22.5 52.0562 23.3395 51.207 24.375 51.207C25.4105 51.207 26.25 52.0562 26.25 53.1036Z" fill="#F5972C"/>
<path d="M2.5 42.3564L1.25 44.2529L11.25 49.3105C12.1269 49.7386 12.5 50.5748 12.5 51.207V58.7932C12.5 60.5201 12.8519 61.0908 14.375 61.9541L40.625 75.2299C41.8226 75.7622 43.75 75.2633 43.75 72.6932C43.75 72.6932 43.7521 69.2152 43.75 65.7472C43.7479 62.2793 43.1606 61.049 41.25 60.0575L25 51.8391L23.125 53.7358L40.1146 62.5862C41.0979 63.0457 41.2687 64.5888 41.25 65.1151C41.2313 65.6413 41.25 72.0744 41.25 72.0744C41.2332 72.6884 41.0622 73.0165 40.4141 72.6932L15.625 60.0575C15.0262 59.7913 15 58.7932 15 58.161V52.4714C15 49.9427 15 48.6782 12.5 47.4138L2.5 42.3564Z" fill="#F5972C"/>
<path d="M41.875 51.4577C42.9105 51.4577 43.75 50.6085 43.75 49.5611C43.75 48.5137 42.9105 47.6646 41.875 47.6646C40.8395 47.6646 40 48.5137 40 49.5611C40 50.6085 40.8395 51.4577 41.875 51.4577Z" fill="#F5972C"/>
<path d="M1.875 25.2872C2.91053 25.2872 3.75 24.4381 3.75 23.3907C3.75 22.3433 2.91053 21.4941 1.875 21.4941C0.839466 21.4941 0 22.3433 0 23.3907C0 24.4381 0.839466 25.2872 1.875 25.2872Z" fill="#F5972C"/>
<path d="M43.1262 49.3104H40.6248V45.5172C40.6244 44.8506 40.456 44.5449 39.9997 44.2528L9.37495 28.4359C8.8107 27.518 9.43441 26.2658 10.6247 26.5518L41.875 42.3563C42.8005 43.0786 43.1377 44.273 43.1262 45.5172V49.3104Z" fill="#F5972C"/>
<path d="M61.875 34.7703L60 32.8738L91.875 16.437L93.75 18.3336L61.875 34.7703Z" fill="#283245"/>
<path d="M63.125 33.5059C63.125 34.5533 62.2855 35.4025 61.25 35.4025C60.2145 35.4025 59.375 34.5533 59.375 33.5059C59.375 32.4585 60.2145 31.6094 61.25 31.6094C62.2855 31.6094 63.125 32.4585 63.125 33.5059Z" fill="#283245"/>
<path d="M93.125 18.9655C94.1605 18.9655 95 18.1164 95 17.0689C95 16.0215 94.1605 15.1724 93.125 15.1724C92.0895 15.1724 91.25 16.0215 91.25 17.0689C91.25 18.1164 92.0895 18.9655 93.125 18.9655Z" fill="#283245"/>
<path d="M40.625 33.5059C40.625 34.5533 39.7855 35.4025 38.75 35.4025C37.7145 35.4025 36.875 34.5533 36.875 33.5059C36.875 32.4585 37.7145 31.6094 38.75 31.6094C39.7855 31.6094 40.625 32.4585 40.625 33.5059Z" fill="#283245"/>
<path d="M8.75 17.0689C8.75 18.1163 7.91054 18.9655 6.875 18.9655C5.83946 18.9655 5 18.1163 5 17.0689C5 16.0215 5.83946 15.1724 6.875 15.1724C7.91054 15.1724 8.75 16.0215 8.75 17.0689Z" fill="#283245"/>
<path d="M7.5 15.8047L40 32.8737L38.125 34.7702L6.25 18.3334L7.5 15.8047Z" fill="#283245"/>
<path d="M1.875 16.4371C2.91053 16.4371 3.75 15.588 3.75 14.5406C3.75 13.4932 2.91053 12.644 1.875 12.644C0.839466 12.644 0 13.4932 0 14.5406C0 15.588 0.839466 16.4371 1.875 16.4371Z" fill="#283245"/>
<path d="M98.125 16.4371C99.1605 16.4371 100 15.588 100 14.5406C100 13.4932 99.1605 12.644 98.125 12.644C97.0895 12.644 96.25 13.4932 96.25 14.5406C96.25 15.588 97.0895 16.4371 98.125 16.4371Z" fill="#283245"/>
<path d="M25 1.26428L1.25 13.2757L1.875 15.8045L26.875 3.16079L38.75 9.48263L31.25 13.2757C29.5914 13.9625 29.523 16.5174 31.25 17.0688L47.5 25.2872C50 26.5205 50 26.5205 52.5 25.2872L68.75 17.0688C70.4747 16.0481 70.4672 14.3375 68.75 13.2757L61.25 9.48263L73.125 3.16079L98.125 15.8045L98.75 13.2757L75 1.26428C73.4009 0.231801 72.934 0.223533 71.25 1.26428L60 7.58608C58.3221 8.66887 58.3624 10.373 60 11.3792L67.5 15.1723L51.25 23.3907C50 24.0073 50 24.0073 48.75 23.3907L32.5 15.1723L40 11.3792C41.6719 10.4779 41.673 8.5079 40 7.58608L28.75 1.26428C27.3719 0.255596 26.6007 0.218275 25 1.26428Z" fill="#283245"/>
<path d="M55.3186 104.664C55.3455 104.719 55.3589 104.775 55.3589 104.834C55.3589 104.879 55.3455 104.929 55.3186 104.983C54.7277 104.956 54.1549 104.943 53.5999 104.943C53.0537 104.943 52.4854 104.956 51.8945 104.983C51.8766 104.911 51.8676 104.861 51.8676 104.834C51.8676 104.811 51.8766 104.755 51.8945 104.664C52.0422 104.646 52.1631 104.628 52.2571 104.61C52.3511 104.587 52.4675 104.553 52.6062 104.508C52.745 104.463 52.8501 104.399 52.9217 104.318C52.9934 104.232 53.0314 104.13 53.0359 104.012C53.0537 103.564 53.0627 103.021 53.0627 102.382C53.0627 102.17 53.0605 101.807 53.056 101.296C53.0515 100.784 53.0494 100.336 53.0494 99.9511C52.7942 99.7927 52.3645 99.6999 51.7602 99.6727C51.7424 99.6003 51.7334 99.5437 51.7334 99.503C51.7334 99.4758 51.7424 99.426 51.7602 99.3536C52.6286 99.2631 53.385 99.0774 54.0295 98.7968C54.1415 98.842 54.2197 98.9008 54.2645 98.9733V100.046C54.6987 99.6615 55.115 99.3536 55.5132 99.1227C55.9116 98.8873 56.3145 98.7696 56.7217 98.7696C57.232 98.7696 57.5924 98.9145 57.8027 99.2041C58.0176 99.4939 58.1295 99.9467 58.1384 100.562L58.2056 104.012C58.21 104.13 58.2436 104.232 58.3062 104.318C58.3734 104.399 58.4674 104.463 58.5882 104.508C58.7136 104.553 58.8165 104.587 58.8971 104.61C58.9776 104.628 59.0829 104.646 59.2126 104.664C59.2305 104.755 59.2395 104.816 59.2395 104.848C59.2395 104.884 59.2305 104.929 59.2126 104.983C58.6352 104.956 58.1026 104.943 57.6147 104.943C57.1402 104.943 56.6144 104.956 56.037 104.983C56.0191 104.911 56.0101 104.857 56.0101 104.82C56.0101 104.789 56.0191 104.737 56.037 104.664C56.1534 104.646 56.2496 104.628 56.3256 104.61C56.4062 104.587 56.4957 104.553 56.5942 104.508C56.6971 104.463 56.7732 104.399 56.8225 104.318C56.8762 104.232 56.9031 104.13 56.9031 104.012L56.9165 100.786C56.9165 99.9671 56.6726 99.5573 56.1847 99.5573C55.7281 99.5573 55.0881 99.8651 54.2645 100.481C54.2645 101.798 54.2824 102.975 54.3182 104.012C54.3227 104.13 54.3562 104.232 54.419 104.318C54.4861 104.399 54.5801 104.463 54.7009 104.508C54.8217 104.553 54.9225 104.587 55.003 104.61C55.0836 104.628 55.1887 104.646 55.3186 104.664ZM62.6971 105.14C62.4779 105.14 62.2786 105.121 62.0996 105.085C61.925 105.049 61.7885 105.01 61.6901 104.97C61.5961 104.929 61.4685 104.868 61.3074 104.786C61.1327 104.786 60.8755 104.852 60.5352 104.983C60.4771 104.947 60.4367 104.906 60.4144 104.861C60.4367 104.789 60.4636 104.542 60.495 104.121C60.5307 103.7 60.5487 103.324 60.5487 102.994C60.6069 102.966 60.7121 102.953 60.8642 102.953C60.9449 103.215 61.0276 103.44 61.1126 103.625C61.2022 103.811 61.3141 103.992 61.4484 104.168C61.5871 104.341 61.7527 104.472 61.9452 104.562C62.1421 104.648 62.3659 104.691 62.6166 104.691C63.006 104.691 63.3104 104.589 63.5296 104.386C63.7535 104.182 63.8654 103.951 63.8654 103.693C63.8654 103.498 63.834 103.333 63.7714 103.197C63.7087 103.061 63.5677 102.919 63.3484 102.769C63.1335 102.616 62.8247 102.464 62.4219 102.314C62.1712 102.224 61.9586 102.14 61.784 102.063C61.6095 101.986 61.4282 101.891 61.2402 101.778C61.0567 101.665 60.909 101.549 60.7971 101.432C60.6852 101.309 60.5935 101.165 60.5219 100.997C60.4502 100.829 60.4144 100.646 60.4144 100.447C60.4144 100.302 60.4301 100.159 60.4614 100.019C60.4972 99.8743 60.5621 99.7248 60.6561 99.5709C60.7546 99.4169 60.8755 99.2834 61.0186 99.1703C61.1664 99.0525 61.3611 98.9575 61.6027 98.885C61.849 98.808 62.1265 98.7696 62.4352 98.7696C62.5606 98.7696 62.6702 98.7763 62.7642 98.7899C62.8627 98.8035 62.9791 98.8284 63.1134 98.8647C63.2521 98.8963 63.3282 98.9145 63.3416 98.9189C63.4401 98.8963 63.5409 98.8669 63.6437 98.8306C63.7512 98.7945 63.8116 98.7741 63.8251 98.7696H63.9996C64.107 99.4215 64.2457 99.976 64.4159 100.433C64.3621 100.492 64.2749 100.522 64.154 100.522C63.7825 100.069 63.4647 99.7385 63.2006 99.5301C62.9411 99.3173 62.6456 99.211 62.3145 99.211C62.0549 99.211 61.8266 99.2698 61.6296 99.3875C61.4327 99.5052 61.3342 99.6841 61.3342 99.9241C61.3342 100.227 61.4529 100.465 61.6901 100.637C61.9317 100.809 62.3771 101.029 63.0261 101.296C63.326 101.418 63.561 101.52 63.7311 101.601C63.9056 101.683 64.0802 101.78 64.2547 101.893C64.4294 102.007 64.5569 102.124 64.6375 102.247C64.7225 102.364 64.7919 102.507 64.8456 102.674C64.8992 102.842 64.9261 103.037 64.9261 103.258C64.9261 103.738 64.7069 104.173 64.2682 104.562C63.834 104.947 63.3104 105.14 62.6971 105.14ZM71.3916 101.343H67.7325C67.7146 101.615 67.7057 101.855 67.7057 102.063C67.7191 102.738 67.9139 103.279 68.2897 103.686C68.6657 104.089 69.1692 104.291 69.8004 104.291C69.9705 104.291 70.1294 104.273 70.2771 104.236C70.4247 104.196 70.5456 104.15 70.6396 104.101C70.7381 104.051 70.8389 103.978 70.9417 103.883C71.0447 103.788 71.1186 103.713 71.1634 103.659C71.2126 103.6 71.2775 103.514 71.358 103.401C71.4386 103.283 71.4922 103.209 71.5191 103.177C71.6266 103.2 71.7139 103.249 71.781 103.326C71.5572 103.933 71.2104 104.388 70.7404 104.691C70.2704 104.99 69.7601 105.14 69.2096 105.14C68.9366 105.14 68.6702 105.103 68.4106 105.031C68.1555 104.963 67.9071 104.85 67.6654 104.691C67.4237 104.533 67.2134 104.338 67.0342 104.107C66.8552 103.872 66.712 103.58 66.6046 103.231C66.4972 102.878 66.4435 102.489 66.4435 102.063C66.4435 101.108 66.7321 100.32 67.3096 99.6999C67.887 99.0797 68.5964 98.7696 69.4379 98.7696C69.8094 98.7696 70.1316 98.8238 70.4046 98.9325C70.6821 99.0366 70.897 99.1792 71.0492 99.3604C71.2059 99.5415 71.32 99.7406 71.3916 99.958C71.4677 100.171 71.5057 100.399 71.5057 100.644C71.5057 100.87 71.4677 101.103 71.3916 101.343ZM69.2767 99.211C68.9679 99.211 68.6747 99.349 68.3972 99.6252C68.1241 99.9014 67.9272 100.32 67.8064 100.882H70.2234C70.2681 100.709 70.2905 100.56 70.2905 100.433C70.2905 100.08 70.21 99.7881 70.0489 99.5573C69.8877 99.3264 69.6304 99.211 69.2767 99.211ZM78.2599 103.177C78.3672 103.2 78.4546 103.249 78.5217 103.326C78.2979 103.933 77.951 104.388 77.4811 104.691C77.0111 104.99 76.5009 105.14 75.9504 105.14C75.6772 105.14 75.411 105.103 75.1514 105.031C74.8917 104.963 74.6389 104.85 74.3927 104.691C74.151 104.533 73.9384 104.338 73.7549 104.107C73.5759 103.872 73.4304 103.58 73.3185 103.231C73.211 102.878 73.1574 102.489 73.1574 102.063C73.1574 101.081 73.455 100.286 74.0502 99.6795C74.6456 99.0729 75.3886 98.7696 76.2792 98.7696C76.9059 98.7696 77.4161 98.9076 77.81 99.1838C78.2084 99.4555 78.4076 99.8041 78.4076 100.23C78.4076 100.47 78.3292 100.669 78.1726 100.827C78.016 100.986 77.8235 101.065 77.5952 101.065C77.3535 101.065 77.1589 100.995 77.0111 100.854C76.8634 100.709 76.7895 100.542 76.7895 100.352C76.7895 100.008 76.9619 99.7904 77.3065 99.6999C77.2751 99.5958 77.1745 99.4894 77.0044 99.3808C76.8342 99.2676 76.5926 99.211 76.2792 99.211C76.1181 99.211 75.966 99.2313 75.8227 99.272C75.6795 99.3083 75.5251 99.3875 75.3595 99.5097C75.1984 99.632 75.0596 99.7927 74.9432 99.992C74.8314 100.191 74.7374 100.47 74.6612 100.827C74.5851 101.18 74.5471 101.592 74.5471 102.063C74.5471 102.38 74.5785 102.668 74.6411 102.926C74.7082 103.184 74.8112 103.417 74.95 103.625C75.0887 103.833 75.2789 103.996 75.5206 104.114C75.7624 104.232 76.0465 104.291 76.3732 104.291C76.5791 104.291 76.7739 104.264 76.9574 104.209C77.1409 104.15 77.2886 104.089 77.4005 104.026C77.5169 103.962 77.64 103.867 77.7697 103.741C77.904 103.609 77.9936 103.517 78.0384 103.462C78.0831 103.403 78.157 103.308 78.2599 103.177ZM81.355 97.6151C81.3997 97.597 81.4512 97.5879 81.5094 97.5879C81.5676 97.5879 81.628 97.597 81.6906 97.6151V99.1023H83.725C83.7519 99.1702 83.7652 99.2539 83.7652 99.3536C83.7652 99.4396 83.7519 99.5188 83.725 99.5913H81.6906V103.218C81.6906 103.933 82.0151 104.291 82.6641 104.291C82.9104 104.291 83.1207 104.243 83.2952 104.148C83.4744 104.053 83.6712 103.91 83.8861 103.72C83.998 103.734 84.0719 103.788 84.1076 103.883C83.9107 104.241 83.6197 104.54 83.2349 104.78C82.8499 105.02 82.427 105.14 81.966 105.14C80.8827 105.14 80.3411 104.476 80.3411 103.15V99.5913H79.5154C79.4975 99.5097 79.4885 99.4576 79.4885 99.435C79.4885 99.4306 79.4975 99.3785 79.5154 99.2789C79.7302 99.1702 79.8936 99.0819 80.0055 99.014C80.1219 98.9415 80.2674 98.8397 80.4419 98.7084C80.6209 98.5771 80.7821 98.4233 80.9252 98.2466C81.073 98.0656 81.2162 97.8551 81.355 97.6151ZM87.431 105.14C87.2117 105.14 87.0125 105.121 86.8335 105.085C86.6589 105.049 86.5224 105.01 86.424 104.97C86.33 104.929 86.2024 104.868 86.0412 104.786C85.8667 104.786 85.6094 104.852 85.2691 104.983C85.211 104.947 85.1707 104.906 85.1484 104.861C85.1707 104.789 85.1975 104.542 85.2289 104.121C85.2647 103.7 85.2826 103.324 85.2826 102.994C85.3407 102.966 85.446 102.953 85.5981 102.953C85.6787 103.215 85.7615 103.44 85.8465 103.625C85.9361 103.811 86.048 103.992 86.1822 104.168C86.321 104.341 86.4866 104.472 86.6791 104.562C86.876 104.648 87.0999 104.691 87.3505 104.691C87.7399 104.691 88.0442 104.589 88.2635 104.386C88.4874 104.182 88.5992 103.951 88.5992 103.693C88.5992 103.498 88.5679 103.333 88.5052 103.197C88.4426 103.061 88.3016 102.919 88.0822 102.769C87.8674 102.616 87.5586 102.464 87.1557 102.314C86.9051 102.224 86.6925 102.14 86.518 102.063C86.3434 101.986 86.1621 101.891 85.9741 101.778C85.7906 101.665 85.6429 101.549 85.531 101.432C85.4191 101.309 85.3274 101.165 85.2557 100.997C85.1841 100.829 85.1484 100.646 85.1484 100.447C85.1484 100.302 85.164 100.159 85.1952 100.019C85.2311 99.8743 85.296 99.7248 85.39 99.5709C85.4885 99.4169 85.6094 99.2834 85.7526 99.1703C85.9002 99.0525 86.095 98.9575 86.3366 98.885C86.5829 98.808 86.8604 98.7696 87.1692 98.7696C87.2945 98.7696 87.4041 98.7763 87.4981 98.7899C87.5966 98.8035 87.713 98.8284 87.8472 98.8647C87.986 98.8963 88.0621 98.9145 88.0755 98.9189C88.174 98.8963 88.2747 98.8669 88.3776 98.8306C88.4851 98.7945 88.5455 98.7741 88.559 98.7696H88.7335C88.841 99.4215 88.9797 99.976 89.1497 100.433C89.0961 100.492 89.0087 100.522 88.888 100.522C88.5165 100.069 88.1986 99.7385 87.9346 99.5301C87.675 99.3173 87.3795 99.211 87.0484 99.211C86.7887 99.211 86.5605 99.2698 86.3635 99.3875C86.1666 99.5052 86.0681 99.6841 86.0681 99.9241C86.0681 100.227 86.1867 100.465 86.424 100.637C86.6656 100.809 87.111 101.029 87.76 101.296C88.0599 101.418 88.2949 101.52 88.465 101.601C88.6395 101.683 88.8141 101.78 88.9886 101.893C89.1632 102.007 89.2907 102.124 89.3714 102.247C89.4564 102.364 89.5257 102.507 89.5795 102.674C89.6331 102.842 89.66 103.037 89.66 103.258C89.66 103.738 89.4407 104.173 89.0021 104.562C88.5679 104.947 88.0442 105.14 87.431 105.14Z" fill="#283245"/>
<path fill-rule="evenodd" clip-rule="evenodd" d="M49.3735 92.2988H49.5229C49.5563 92.3015 49.5905 92.3039 49.6246 92.3101C50.5757 92.4525 50.877 93.3788 50.7214 94.3044C50.6217 94.8917 50.1049 95.2127 50.0184 95.7939C49.8775 96.7383 50.0001 97.802 50.0001 98.7577V104.696C50.4264 104.696 50.854 104.651 51.25 104.831C50.1479 104.831 48.5163 105.156 47.5 104.696H48.4995V98.8933C48.4995 97.8904 48.3603 96.7537 48.6244 95.7889C48.1918 95.788 47.8505 95.8059 47.5 95.5192C48.2276 95.5192 49.0879 95.5604 49.748 95.1715C50.4986 94.7301 50.8715 93.7018 50.2211 92.9745C49.6126 92.2944 48.4366 92.5839 48.6244 93.6294C48.7126 93.4672 48.7724 93.2911 48.928 93.1848C50.1519 92.3452 50.5741 94.9114 49.1254 94.7989C47.775 94.694 48.1004 92.3872 49.3735 92.2988Z" fill="#283245"/>
<path d="M14.732 94.7356C15.0856 94.7356 15.437 94.7605 15.7861 94.8103C16.1397 94.8555 16.4776 94.9122 16.7999 94.9801C17.1266 95.0434 17.4355 95.1069 17.7265 95.1702C18.0174 95.2336 18.2792 95.2789 18.512 95.306C18.4582 95.469 18.4314 95.7565 18.4314 96.1685C18.4314 96.9698 18.55 97.6648 18.7872 98.2534C18.7604 98.3348 18.6776 98.3846 18.5389 98.4027L18.2501 97.778C18.1069 97.4656 17.9346 97.1577 17.7331 96.8544C17.5317 96.5465 17.29 96.2726 17.008 96.0327C16.7261 95.7883 16.3971 95.5913 16.0211 95.4418C15.6496 95.2925 15.2199 95.2178 14.732 95.2178C14.3114 95.2178 13.9376 95.288 13.6109 95.4283C13.2841 95.5686 12.9976 95.7588 12.7515 95.9988C12.5052 96.2342 12.2972 96.5103 12.1271 96.8272C11.957 97.1396 11.8182 97.4724 11.7108 97.8255C11.6079 98.1787 11.5318 98.5408 11.4825 98.9121C11.4378 99.2834 11.4154 99.6433 11.4154 99.9919C11.4154 100.571 11.4893 101.126 11.637 101.656C11.7891 102.185 12.0241 102.654 12.3419 103.061C12.6597 103.464 13.0625 103.786 13.5504 104.026C14.0427 104.266 14.6291 104.386 15.3095 104.386C16.612 104.386 17.5966 103.974 18.2635 103.15C18.3351 103.15 18.3934 103.17 18.4381 103.211C18.4874 103.252 18.512 103.301 18.512 103.36C18.2971 103.682 18.0352 103.96 17.7265 104.196C17.4221 104.431 17.0976 104.626 16.7529 104.78C16.4082 104.929 16.0591 105.04 15.7056 105.112C15.3565 105.185 15.032 105.221 14.732 105.221C14.4054 105.221 14.0517 105.185 13.6712 105.112C13.2952 105.044 12.9171 104.929 12.5366 104.766C12.1606 104.603 11.7981 104.39 11.449 104.128C11.1043 103.86 10.7977 103.535 10.5292 103.15C10.2606 102.76 10.0458 102.305 9.88463 101.785C9.72351 101.264 9.64294 100.666 9.64294 99.9919C9.64294 99.3128 9.72351 98.7129 9.88463 98.1922C10.0458 97.6671 10.2606 97.2098 10.5292 96.8205C10.8022 96.4311 11.1133 96.1051 11.4624 95.8425C11.816 95.5755 12.1808 95.3604 12.5567 95.1974C12.9327 95.0299 13.3087 94.9122 13.6847 94.8443C14.0606 94.7718 14.4097 94.7356 14.732 94.7356ZM22.8827 98.7695C23.3257 98.7695 23.7241 98.8487 24.0777 99.0072C24.4359 99.1656 24.7402 99.3853 24.9909 99.666C25.2415 99.9466 25.434 100.284 25.5682 100.678C25.7025 101.067 25.7696 101.493 25.7696 101.954C25.7696 102.896 25.5077 103.661 24.9841 104.25C24.4649 104.843 23.7645 105.14 22.8827 105.14C22.444 105.14 22.0457 105.063 21.6876 104.909C21.334 104.75 21.0319 104.531 20.7812 104.25C20.5306 103.965 20.3359 103.627 20.1971 103.238C20.0629 102.849 19.9957 102.421 19.9957 101.954C19.9957 101.493 20.0629 101.067 20.1971 100.678C20.3314 100.284 20.5216 99.9466 20.7679 99.666C21.0185 99.3853 21.3229 99.1656 21.6809 99.0072C22.039 98.8487 22.4396 98.7695 22.8827 98.7695ZM22.8827 99.2109C22.4261 99.2109 22.0614 99.435 21.7884 99.8832C21.5197 100.331 21.3855 101.022 21.3855 101.954C21.3855 102.887 21.5197 103.578 21.7884 104.026C22.0614 104.469 22.4261 104.691 22.8827 104.691C23.3392 104.691 23.7017 104.467 23.9704 104.019C24.2434 103.571 24.3799 102.883 24.3799 101.954C24.3799 101.488 24.3441 101.083 24.2725 100.739C24.2009 100.395 24.1001 100.11 23.9704 99.8832C23.8405 99.6568 23.6839 99.4893 23.5004 99.3807C23.3169 99.2676 23.111 99.2109 22.8827 99.2109ZM30.5297 95.1771C31.3757 95.0955 32.1321 94.9099 32.7991 94.6201C32.9155 94.6699 32.9915 94.7311 33.0274 94.8036C33.0274 99.933 33.0475 103.003 33.0877 104.012C33.0922 104.13 33.1259 104.232 33.1885 104.318C33.2556 104.399 33.3496 104.463 33.4705 104.508C33.5912 104.553 33.692 104.587 33.7726 104.61C33.8531 104.628 33.9584 104.646 34.0881 104.664C34.106 104.737 34.115 104.793 34.115 104.834C34.115 104.861 34.106 104.911 34.0881 104.983C33.9315 104.974 33.7704 104.965 33.6047 104.956C33.4436 104.947 33.316 104.94 33.222 104.936C33.128 104.931 33.0407 104.929 32.9602 104.929C32.8931 104.929 32.817 104.931 32.7319 104.936C32.6469 104.94 32.5305 104.947 32.3827 104.956C32.2351 104.965 32.0896 104.974 31.9464 104.983C31.924 104.974 31.9039 104.963 31.886 104.949C31.8725 104.94 31.8614 104.933 31.8524 104.929C31.848 104.92 31.8412 104.909 31.8322 104.895C31.8234 104.877 31.8166 104.866 31.8121 104.861C31.8076 104.857 31.801 104.843 31.792 104.82C31.7875 104.793 31.783 104.777 31.7786 104.773C31.7965 104.664 31.8054 104.42 31.8054 104.039C31.0669 104.773 30.3844 105.14 29.7577 105.14C29.0684 105.14 28.5066 104.877 28.0725 104.352C27.6384 103.827 27.4212 103.111 27.4212 102.206C27.4212 101.893 27.4571 101.581 27.5286 101.269C27.6002 100.956 27.7189 100.648 27.8845 100.345C28.0501 100.042 28.2537 99.7746 28.4955 99.5437C28.7371 99.3128 29.0437 99.1272 29.4152 98.9869C29.7867 98.842 30.1986 98.7695 30.6506 98.7695C30.9864 98.7695 31.3802 98.842 31.8322 98.9869C31.8234 98.1266 31.8189 97.0559 31.8189 95.7746C31.5637 95.6253 31.134 95.5325 30.5297 95.4962C30.5119 95.4238 30.5029 95.3694 30.5029 95.3332C30.5029 95.3015 30.5119 95.2495 30.5297 95.1771ZM30.4022 104.25C30.8499 104.25 31.322 104.008 31.8189 103.523C31.8277 103.08 31.8322 102.24 31.8322 101.004V100.019C31.5235 99.4804 31.0512 99.2109 30.4156 99.2109C30.2814 99.2109 30.1471 99.2313 30.0129 99.272C29.8785 99.3128 29.7352 99.3942 29.5831 99.5165C29.431 99.6388 29.2966 99.7949 29.1802 99.9851C29.0684 100.175 28.9744 100.44 28.8984 100.78C28.8222 101.115 28.7841 101.502 28.7841 101.941C28.7841 102.611 28.9207 103.163 29.1937 103.598C29.4712 104.033 29.8741 104.25 30.4022 104.25ZM40.3724 101.343H36.7132C36.6954 101.615 36.6864 101.855 36.6864 102.063C36.6999 102.738 36.8945 103.279 37.2705 103.686C37.6465 104.089 38.15 104.291 38.7811 104.291C38.9512 104.291 39.1101 104.273 39.2577 104.236C39.4055 104.196 39.5264 104.15 39.6204 104.1C39.7189 104.051 39.8195 103.978 39.9225 103.883C40.0254 103.788 40.0992 103.713 40.144 103.659C40.1932 103.6 40.2581 103.514 40.3387 103.401C40.4192 103.283 40.473 103.209 40.4999 103.177C40.6072 103.199 40.6946 103.249 40.7617 103.326C40.5379 103.933 40.191 104.388 39.7211 104.691C39.2511 104.99 38.7409 105.14 38.1902 105.14C37.9172 105.14 37.651 105.103 37.3914 105.031C37.1362 104.963 36.8879 104.85 36.6461 104.691C36.4044 104.533 36.194 104.338 36.015 104.107C35.836 103.872 35.6927 103.58 35.5854 103.231C35.4779 102.878 35.4242 102.489 35.4242 102.063C35.4242 101.108 35.7129 100.32 36.2902 99.6998C36.8676 99.0797 37.5771 98.7695 38.4186 98.7695C38.7901 98.7695 39.1124 98.8238 39.3854 98.9325C39.6629 99.0366 39.8777 99.1792 40.0299 99.3604C40.1866 99.5414 40.3007 99.7406 40.3724 99.9579C40.4484 100.171 40.4865 100.399 40.4865 100.644C40.4865 100.87 40.4484 101.103 40.3724 101.343ZM38.2575 99.2109C37.9486 99.2109 37.6554 99.349 37.3779 99.6251C37.1049 99.9014 36.908 100.32 36.7871 100.882H39.2041C39.2489 100.709 39.2712 100.56 39.2712 100.433C39.2712 100.08 39.1906 99.7881 39.0295 99.5572C38.8684 99.3263 38.611 99.2109 38.2575 99.2109Z" fill="#283245"/>
</svg>
