<svg width="24" height="25" viewBox="0 0 24 25" fill="none" xmlns="http://www.w3.org/2000/svg">
<path d="M21.3169 10.625H17.3081C17.0939 10.6253 16.8885 10.7105 16.737 10.862C16.5855 11.0135 16.5003 11.2189 16.5 11.4331V19.9419C16.5 20.3874 16.8626 20.75 17.3077 20.75H21.3165C21.5308 20.7498 21.7363 20.6646 21.8878 20.5131C22.0394 20.3616 22.1247 20.1562 22.125 19.9419V11.4331C22.1247 11.2189 22.0395 11.0135 21.888 10.862C21.7365 10.7105 21.5311 10.6253 21.3169 10.625ZM19.875 19.625H18.75C18.6505 19.625 18.5552 19.5855 18.4848 19.5152C18.4145 19.4448 18.375 19.3495 18.375 19.25C18.375 19.1505 18.4145 19.0552 18.4848 18.9848C18.5552 18.9145 18.6505 18.875 18.75 18.875H19.875C19.9745 18.875 20.0698 18.9145 20.1402 18.9848C20.2105 19.0552 20.25 19.1505 20.25 19.25C20.25 19.3495 20.2105 19.4448 20.1402 19.5152C20.0698 19.5855 19.9745 19.625 19.875 19.625Z" fill="black"/>
<path d="M20.25 9.87501V5.66713C20.249 5.2916 20.0998 4.93164 19.8349 4.66551C19.7036 4.53336 19.5474 4.42859 19.3753 4.35727C19.2033 4.28594 19.0188 4.24949 18.8325 4.25001H3.29213C2.9164 4.2504 2.55618 4.39983 2.2905 4.66551C2.02483 4.93119 1.8754 5.29141 1.875 5.66713V14.8329C1.87589 15.2084 2.02494 15.5683 2.28975 15.8345C2.5561 16.0996 2.91631 16.249 3.29213 16.25H15.75V11.4331C15.7504 11.0201 15.9146 10.624 16.2067 10.3319C16.4987 10.0398 16.8947 9.8755 17.3077 9.87501H20.25ZM11.625 14.9199H10.5C10.4005 14.9199 10.3052 14.8804 10.2348 14.81C10.1645 14.7397 10.125 14.6443 10.125 14.5449C10.125 14.4454 10.1645 14.35 10.2348 14.2797C10.3052 14.2094 10.4005 14.1699 10.5 14.1699H11.625C11.7245 14.1699 11.8198 14.2094 11.8902 14.2797C11.9605 14.35 12 14.4454 12 14.5449C12 14.6443 11.9605 14.7397 11.8902 14.81C11.8198 14.8804 11.7245 14.9199 11.625 14.9199ZM15 20H13.5V17H8.625V20H7.125C7.02554 20 6.93016 20.0395 6.85983 20.1098C6.78951 20.1802 6.75 20.2755 6.75 20.375C6.75 20.4745 6.78951 20.5698 6.85983 20.6402C6.93016 20.7105 7.02554 20.75 7.125 20.75H15C15.0995 20.75 15.1948 20.7105 15.2652 20.6402C15.3355 20.5698 15.375 20.4745 15.375 20.375C15.375 20.2755 15.3355 20.1802 15.2652 20.1098C15.1948 20.0395 15.0995 20 15 20Z" fill="black"/>
</svg>
