<svg width="24" height="25" viewBox="0 0 24 25" fill="none" xmlns="http://www.w3.org/2000/svg">
<path fill-rule="evenodd" clip-rule="evenodd" d="M16.6711 9.1084C13.9306 9.1084 11.7055 11.3334 11.7055 14.074C11.7055 16.8148 13.9306 19.0398 16.6711 19.0398C19.4119 19.0398 21.637 16.8148 21.637 14.074C21.637 11.3334 19.4119 9.1084 16.6711 9.1084ZM15.5074 12.6105V14.5257C15.5075 14.6244 15.527 14.7221 15.5649 14.8132C15.6028 14.9043 15.6583 14.9871 15.7282 15.0567C15.7981 15.1264 15.881 15.1816 15.9723 15.2192C16.0636 15.2567 16.1613 15.2759 16.26 15.2757L18.3679 15.268C18.5636 15.2624 18.7493 15.1805 18.8854 15.0399C19.0216 14.8993 19.0974 14.711 19.0966 14.5153C19.0959 14.3196 19.0187 14.1319 18.8816 13.9923C18.7444 13.8527 18.5581 13.7722 18.3624 13.768L17.0074 13.7728V12.6105C17.0024 12.4149 16.9212 12.2289 16.7811 12.0923C16.641 11.9557 16.4531 11.8792 16.2574 11.8792C16.0617 11.8792 15.8737 11.9557 15.7336 12.0923C15.5935 12.2289 15.5123 12.4149 15.5074 12.6105Z" fill="#344054"/>
<path fill-rule="evenodd" clip-rule="evenodd" d="M17.7922 19.4792C17.3702 19.5764 16.9386 19.6253 16.5055 19.6251C13.3512 19.6249 10.7904 17.0643 10.7904 13.91C10.7904 10.7559 13.3512 8.19512 16.5055 8.19512C16.9479 8.19512 17.3789 8.24552 17.7922 8.3408V4.62512C17.7923 4.37887 17.7438 4.13501 17.6497 3.90749C17.5555 3.67996 17.4174 3.47322 17.2433 3.29908C17.0691 3.12495 16.8624 2.98683 16.6349 2.89261C16.4074 2.7984 16.1635 2.74994 15.9173 2.75H3.94369C3.44642 2.75 2.96951 2.94752 2.61787 3.29913C2.26622 3.65073 2.06864 4.12761 2.06857 4.62488V20.3751C2.06864 20.8724 2.26622 21.3493 2.61787 21.7009C2.96951 22.0525 3.44642 22.25 3.94369 22.25H15.9173C16.1635 22.25 16.4073 22.2015 16.6348 22.1073C16.8623 22.013 17.069 21.8749 17.2431 21.7008C17.4172 21.5267 17.5553 21.3199 17.6495 21.0924C17.7437 20.8649 17.7922 20.6211 17.7922 20.3749V19.4792ZM4.03513 18.5002H10.3419C10.5375 18.4953 10.7234 18.4141 10.86 18.274C10.9967 18.1339 11.0731 17.9459 11.0731 17.7502C11.0731 17.5545 10.9967 17.3666 10.86 17.2265C10.7234 17.0864 10.5375 17.0052 10.3419 17.0002H4.03513C3.83951 17.0052 3.65355 17.0864 3.51694 17.2265C3.38033 17.3666 3.30387 17.5545 3.30387 17.7502C3.30387 17.9459 3.38033 18.1339 3.51694 18.274C3.65355 18.4141 3.83951 18.4953 4.03513 18.5002ZM4.03513 13.25H8.76529C9.17905 13.25 9.51529 12.914 9.51529 12.5C9.51529 12.086 9.17905 11.75 8.76529 11.75H4.03513C3.83951 11.7549 3.65355 11.8361 3.51694 11.9763C3.38033 12.1164 3.30387 12.3043 3.30387 12.5C3.30387 12.6957 3.38033 12.8836 3.51694 13.0237C3.65355 13.1639 3.83951 13.2451 4.03513 13.25ZM4.03513 8.00024H12.1776C12.3732 7.99529 12.5592 7.9141 12.6958 7.77399C12.8324 7.63387 12.9089 7.44593 12.9089 7.25024C12.9089 7.05455 12.8324 6.8666 12.6958 6.72649C12.5592 6.58638 12.3732 6.50519 12.1776 6.50024H4.03513C3.83951 6.50519 3.65355 6.58638 3.51694 6.72649C3.38033 6.8666 3.30387 7.05455 3.30387 7.25024C3.30387 7.44593 3.38033 7.63387 3.51694 7.77399C3.65355 7.9141 3.83951 7.99529 4.03513 8.00024Z" fill="#344054"/>
</svg>
