<svg width="24" height="25" viewBox="0 0 24 25" fill="none" xmlns="http://www.w3.org/2000/svg">
<g clip-path="url(#clip0_11_144)">
<path d="M6.76922 9.98715H10.6154V24.5H6.76922V9.98715ZM13.3846 13.0641H17.2308V24.5H13.3846V13.0641ZM20 7.62817H23.8461V24.5H20V7.62817ZM0.153839 15.4743H3.99999V24.5H0.153839V15.4743Z" fill="black"/>
<path d="M21.7907 0.5C20.7152 0.5 19.8434 1.37123 19.8434 2.44595C19.8434 2.69749 19.8916 2.93764 19.9786 3.15831L16.2256 6.35539C15.9413 6.2015 15.6229 6.12115 15.2996 6.12164C14.7431 6.12164 14.2414 6.35533 13.8865 6.72944L10.6468 5.40256C10.647 5.39 10.6477 5.37754 10.6477 5.36487C10.6477 4.29015 9.77588 3.41892 8.70039 3.41892C7.62491 3.41892 6.75311 4.29015 6.75311 5.36487C6.75311 5.47364 6.76244 5.58015 6.77962 5.68405L3.41373 7.67415C3.07079 7.4033 2.64642 7.25623 2.20942 7.25677C1.13393 7.25677 0.262085 8.128 0.262085 9.20272C0.262085 10.2774 1.13393 11.1487 2.20942 11.1487C3.28491 11.1487 4.1567 10.2774 4.1567 9.20272C4.15661 9.09578 4.14774 8.98903 4.13019 8.88354L7.49609 6.89344C7.83904 7.16429 8.26343 7.31137 8.70045 7.31082C9.25701 7.31082 9.75865 7.07713 10.1135 6.70303L13.3533 8.0299C13.3531 8.04246 13.3523 8.05492 13.3523 8.06754C13.3523 9.14226 14.2242 10.0135 15.2997 10.0135C16.3752 10.0135 17.247 9.14226 17.247 8.06754C17.247 7.84236 17.2082 7.62631 17.1378 7.42513L20.9322 4.19272C21.1993 4.32408 21.4931 4.39223 21.7907 4.3919C22.8662 4.3919 23.738 3.52067 23.738 2.44595C23.738 1.37123 22.8661 0.5 21.7907 0.5Z" fill="black"/>
</g>
<defs>
<clipPath id="clip0_11_144">
<rect width="24" height="24" fill="white" transform="translate(0 0.5)"/>
</clipPath>
</defs>
</svg>
