<svg width="24" height="24" viewBox="0 0 24 24" fill="none" xmlns="http://www.w3.org/2000/svg">
<g clip-path="url(#clip0_12_234)">
<path d="M23.1764 13.5737C22.0797 12.4771 20.2954 12.4771 19.1995 13.573L14.0524 18.7085C13.9431 18.8177 13.8625 18.9521 13.8177 19.0998L12.6967 22.79C12.648 22.9506 12.6432 23.1214 12.6829 23.2844C12.7227 23.4475 12.8055 23.597 12.9227 23.7172C13.1016 23.9004 13.3445 24.0001 13.5939 24.0001C13.6772 24.0001 13.7615 23.9889 13.8441 23.9659L17.6281 22.9178C17.7838 22.8746 17.9257 22.7919 18.0401 22.6779L23.1764 17.5513C24.2728 16.4545 24.2728 14.6704 23.1764 13.5737ZM16.89 21.1766L14.9863 21.704L15.5435 19.8698L19.0162 16.4045L20.3425 17.7306L16.89 21.1766ZM21.851 16.2247L21.6694 16.406L20.3435 15.0801L20.5246 14.8994C20.8901 14.534 21.4849 14.534 21.8505 14.8994C22.216 15.2651 22.216 15.8598 21.851 16.2247ZM10.7344 23.0624C10.7344 23.5802 10.3147 23.9999 9.7969 23.9999H3.75005C1.6824 23.9999 6.10352e-05 22.3177 6.10352e-05 20.2499V3.74999C6.10352e-05 1.6822 1.6824 0 3.75005 0H15.2761C17.3439 0 19.0261 1.6822 19.0261 3.74999V10.9687C19.0261 11.4865 18.6065 11.9062 18.0886 11.9062C17.5707 11.9062 17.1511 11.4865 17.1511 10.9687V3.74999C17.1511 2.71616 16.3099 1.87499 15.2761 1.87499H3.75005C2.71622 1.87499 1.87505 2.71616 1.87505 3.74999V20.2499C1.87505 21.2837 2.71622 22.1249 3.75005 22.1249H9.7969C10.3147 22.1249 10.7344 22.5446 10.7344 23.0624ZM15.2813 6.98435C15.2813 7.50217 14.8616 7.92184 14.3438 7.92184H11.5781C11.0603 7.92184 10.6406 7.50217 10.6406 6.98435C10.6406 6.46652 11.0603 6.04685 11.5781 6.04685H14.3438C14.8616 6.04685 15.2813 6.46652 15.2813 6.98435ZM9.62918 5.0502L7.44106 7.69844C7.28784 7.88686 7.09462 8.03883 6.8754 8.14334C6.65619 8.24785 6.41647 8.30229 6.17362 8.3027C5.75427 8.30242 5.35102 8.14127 5.04698 7.85247C5.03831 7.84428 5.02983 7.8359 5.02153 7.82734L4.01592 6.79469C3.65466 6.42368 3.66272 5.83024 4.0335 5.46898C4.40447 5.10771 4.9979 5.11554 5.35917 5.48656L6.15838 6.30724L8.18356 3.85602C8.51332 3.45683 9.10442 3.40063 9.50337 3.73039C9.90255 4.06016 9.95876 4.65101 9.62918 5.0502ZM14.3438 13.6874H11.5781C11.0603 13.6874 10.6406 13.2678 10.6406 12.75C10.6406 12.2321 11.0603 11.8125 11.5781 11.8125H14.3438C14.8616 11.8125 15.2813 12.2321 15.2813 12.75C15.2813 13.2678 14.8616 13.6874 14.3438 13.6874ZM9.62918 10.8099L7.44106 13.4584C7.28783 13.6468 7.0946 13.7987 6.87539 13.9032C6.65617 14.0077 6.41646 14.0621 6.17362 14.0624C5.75422 14.0622 5.35091 13.901 5.04679 13.6122C5.03892 13.6047 5.03104 13.597 5.02335 13.5891L4.01775 12.5621C3.65555 12.1922 3.66178 11.5986 4.03167 11.2364C4.40151 10.8741 4.99518 10.8803 5.35734 11.2503L6.15787 12.0677L8.18356 9.61576C8.51332 9.21657 9.10442 9.16056 9.50337 9.49014C9.90255 9.8199 9.95876 10.4108 9.62918 10.8099ZM9.62918 16.4818L7.44106 19.1302C7.28783 19.3186 7.0946 19.4706 6.87539 19.575C6.65617 19.6795 6.41646 19.7339 6.17362 19.7343C5.75422 19.734 5.35091 19.5729 5.04679 19.2841C5.03892 19.2766 5.03104 19.2688 5.02335 19.261L4.01775 18.2339C3.65555 17.8641 3.66178 17.2705 4.03167 16.9083C4.40151 16.5459 4.99518 16.5521 5.35734 16.9222L6.15787 17.7395L8.18356 15.2876C8.51332 14.8884 9.10442 14.8324 9.50337 15.162C9.90255 15.4918 9.95876 16.0826 9.62918 16.4818Z" fill="#344054"/>
</g>
<defs>
<clipPath id="clip0_12_234">
<rect width="24" height="24" fill="white"/>
</clipPath>
</defs>
</svg>
