<svg width="24" height="24" viewBox="0 0 24 24" fill="none" xmlns="http://www.w3.org/2000/svg">
<path d="M13.125 19.5H11.625C11.4 19.5 11.25 19.65 11.25 19.875V22.5H13.5V19.875C13.5 19.65 13.35 19.5 13.125 19.5ZM16.125 17.25H14.625C14.4 17.25 14.25 17.4 14.25 17.625V22.5H16.5V17.625C16.5 17.4 16.35 17.25 16.125 17.25ZM19.125 15H17.625C17.4 15 17.25 15.15 17.25 15.375V22.5H19.5V15.375C19.5 15.15 19.35 15 19.125 15ZM22.125 12.75H20.625C20.4 12.75 20.25 12.9 20.25 13.125V22.5H22.5V13.125C22.5 12.9 22.35 12.75 22.125 12.75ZM6.75 17.25H11.25C11.1 14.85 9.15 12.975 6.75 12.75V17.25Z" fill="#344054"/>
<path d="M6.75 18C6.3 18 6 17.7 6 17.25V12.75C3.45 12.975 1.5 15.075 1.5 17.625C1.5 20.325 3.675 22.5 6.375 22.5C8.925 22.5 11.025 20.55 11.25 18H6.75Z" fill="#344054"/>
<path d="M12 6C13.2426 6 14.25 4.99264 14.25 3.75C14.25 2.50736 13.2426 1.5 12 1.5C10.7574 1.5 9.75 2.50736 9.75 3.75C9.75 4.99264 10.7574 6 12 6Z" fill="#344054"/>
<path d="M13.5 6H10.5C9.225 6 8.25 6.975 8.25 8.25C8.25 8.7 8.55 9 9 9H15C15.45 9 15.75 8.7 15.75 8.25C15.75 6.975 14.775 6 13.5 6Z" fill="#344054"/>
<path d="M5.25 9C6.49264 9 7.5 7.99264 7.5 6.75C7.5 5.50736 6.49264 4.5 5.25 4.5C4.00736 4.5 3 5.50736 3 6.75C3 7.99264 4.00736 9 5.25 9Z" fill="#344054"/>
<path d="M6.75 9H3.75C2.475 9 1.5 9.975 1.5 11.25C1.5 11.7 1.8 12 2.25 12H8.25C8.7 12 9 11.7 9 11.25C9 9.975 8.025 9 6.75 9Z" fill="#344054"/>
<path d="M18.75 9C19.9926 9 21 7.99264 21 6.75C21 5.50736 19.9926 4.5 18.75 4.5C17.5074 4.5 16.5 5.50736 16.5 6.75C16.5 7.99264 17.5074 9 18.75 9Z" fill="#344054"/>
<path d="M20.25 9H17.25C15.975 9 15 9.975 15 11.25C15 11.7 15.3 12 15.75 12H21.75C22.2 12 22.5 11.7 22.5 11.25C22.5 9.975 21.525 9 20.25 9Z" fill="#344054"/>
</svg>
